<svg preserveAspectRatio="none" width="100%" height="100%" overflow="visible" style="display: block;" viewBox="0 0 33 23" fill="none" xmlns="http://www.w3.org/2000/svg">
<g id="Layer_1" clip-path="url(#clip0_75_85)">
<path id="Vector" d="M23.3962 21.0039L23.9907 21.9838C24.7588 22.0175 27.0108 21.7713 25.8574 22.9787L7.25981 23L6.82855 22.665C6.57975 21.6426 8.53444 22.1475 9.02183 21.9838L9.6164 21.0039H1.38682C0.737382 21.0039 0.225745 20.0302 0.169605 19.4464C-0.371379 13.7855 0.589377 7.3096 0.169605 1.56241C0.164501 0.704954 0.882835 -0.00500772 1.76449 -7.98811e-06L31.6985 0.0587388C32.4385 0.306225 32.7779 0.812448 32.843 1.56241C33.3419 7.31085 32.4589 13.7455 32.8379 19.5664C32.9221 20.0764 32.0698 21.0039 31.6258 21.0039H23.3962ZM31.8171 18.004V1.19243L31.6258 1.00494H1.38682L1.19543 1.19243V18.004H28.3084C28.8979 18.004 28.8086 19.004 28.436 19.004H1.19543L1.21329 19.7989L1.51441 20.0039L11.409 20.0602L11.8569 20.3814C12.01 21.2326 10.9957 20.8576 10.6359 21.0651L10.128 22.005H22.8871C22.6664 21.6938 22.5898 21.0788 22.1853 21.0051L13.2744 20.9851C12.9108 20.8089 12.8483 20.2426 13.2183 20.0877L31.4982 20.0052L31.7993 19.8002L31.8171 19.004L29.9199 18.864L30.0181 18.1803C30.2912 17.8365 31.368 18.0715 31.8159 18.0053L31.8171 18.004Z" fill="var(--fill-0, #664914)"/>
<path id="Vector_2" d="M23.6595 2.804L10.6994 15.5003L11.4067 16.1932L24.3668 3.49693L23.6595 2.804Z" fill="var(--fill-0, #664914)"/>
<path id="Vector_3" d="M19.0602 3.81133L11.2093 11.5025L11.9157 12.1945L19.7667 4.50337L19.0602 3.81133Z" fill="var(--fill-0, #664914)"/>
</g>
<defs>
<clipPath id="clip0_75_85">
<rect width="33" height="23" fill="white"/>
</clipPath>
</defs>
</svg>
