<svg preserveAspectRatio="none" width="100%" height="100%" overflow="visible" style="display: block;" viewBox="0 0 33 33" fill="none" xmlns="http://www.w3.org/2000/svg">
<g id="Layer_1" clip-path="url(#clip0_75_136)">
<path id="Vector" d="M6.72804 32.9671L6.03351 32.8876L5.91391 30.7729C3.76782 31.0116 1.5565 29.2905 1.30641 27.1252C1.06585 25.0366 1.44776 22.5668 1.30098 20.4358C-0.551535 20.145 -0.427853 16.1599 1.69921 16.511C1.88813 12.6712 1.45048 8.59422 1.69377 4.78051C1.79027 3.25832 2.16675 1.85544 3.42124 0.900981C5.73722 -0.861195 9.00596 0.0685754 10.096 2.75915C10.2197 3.06359 10.2224 3.60253 10.327 3.76023C10.4589 3.95908 11.0121 3.92891 11.1493 4.16478C11.3056 4.43493 11.1194 4.84908 11.2812 5.12883C11.3668 5.27557 11.9784 5.54709 12.2244 5.82273C12.3875 6.00649 12.5724 6.35618 12.6906 6.5852C13.0671 7.31064 12.7015 7.43954 13.7331 7.59451L13.7942 8.28155H6.25098L6.11235 8.14716C5.77392 7.35178 6.91968 7.51771 6.99035 7.45052C7.04336 7.40115 7.18471 6.51526 7.48236 6.097C7.78409 5.67188 8.69744 5.17271 8.73685 5.1014C8.84966 4.89845 8.67841 4.46647 8.82927 4.16478C9.06576 3.69441 9.67466 4.26763 9.37837 3.20484C8.76403 0.984633 5.78479 0.1248 4.00703 1.49066C3.60744 1.79784 2.65061 2.93057 2.65061 3.41328V16.5096H19.7758C19.6943 15.9542 20.1455 15.2905 20.6878 15.1671C21.3388 15.019 24.5369 15.045 25.2831 15.1355C26.4084 15.2699 26.5131 16.4808 26.6599 16.5165C27.8097 16.6893 31.7336 16.1531 32.4879 16.7798C33.2911 17.4462 33.23 20.3878 31.7268 20.4344C31.6072 22.5147 31.9143 24.8172 31.7404 26.8701C31.5406 29.2233 29.4475 30.9691 27.1138 30.7729C26.9901 31.5724 27.5705 33.2633 26.2983 32.9671V30.9786H6.72804V32.9671ZM12.1646 7.46012C11.992 6.87592 11.7052 6.38635 11.2078 6.02569C10.9971 5.8721 10.5459 5.81862 10.4589 5.68423C10.2292 5.32905 10.6995 4.75857 9.92474 4.71194C9.81057 4.70509 9.69505 4.72017 9.58224 4.71743C9.88125 6.1546 7.77458 5.96672 7.81535 7.46149H12.1646V7.46012ZM25.756 15.9528H20.5913V21.035H25.756V15.9528ZM19.7758 17.3338H1.01284V19.5279H19.7758V17.3338ZM26.5715 19.5279H31.8042C32.1345 19.0493 32.1386 17.8288 31.8042 17.3338H26.5715V19.5279ZM19.7758 20.3507H2.10695V27.1389C2.10695 28.3662 3.93364 29.9707 5.16638 29.9488C12.4691 29.5387 20.3643 30.4987 27.5963 29.9556C28.9731 29.8528 30.9208 28.6789 30.9208 27.1389V20.3507H26.5715V23.7105C26.5715 24.4072 25.6065 24.8254 25.014 24.8817C24.1224 24.9653 21.7819 24.9982 20.9406 24.8679C20.5165 24.8021 19.7772 24.2673 19.7772 23.8477V20.3507H19.7758ZM25.756 21.8592H20.5913C20.6728 22.3735 20.3657 23.7407 20.8631 23.9848C21.1744 24.137 25.2491 24.1055 25.5304 23.9272C25.9205 23.679 25.7003 22.3145 25.7574 21.8592H25.756Z" fill="var(--fill-0, #664914)"/>
<path id="Vector_2" d="M12.11 11.0366L12.5816 11.0832C12.8466 11.2724 12.8167 12.53 12.2309 12.5382C11.7185 12.5382 11.7783 11.1449 12.1086 11.0352L12.11 11.0366Z" fill="var(--fill-0, #664914)"/>
<path id="Vector_3" d="M7.93876 8.84379C8.58979 10.451 6.95474 11.1271 7.2918 9.05498L7.49296 8.84653L7.93876 8.84379Z" fill="var(--fill-0, #664914)"/>
<path id="Vector_4" d="M10.2493 8.84379C10.9003 10.451 9.26528 11.1271 9.60235 9.05498L9.8035 8.84653L10.2493 8.84379Z" fill="var(--fill-0, #664914)"/>
<path id="Vector_5" d="M12.5598 8.84379C13.2109 10.451 11.5758 11.1271 11.9129 9.05498L12.114 8.84653L12.5598 8.84379Z" fill="var(--fill-0, #664914)"/>
<path id="Vector_6" d="M7.29044 12.375L7.33258 11.1559L7.86944 11.0366C8.33699 11.1915 8.17253 13.0072 7.29044 12.375Z" fill="var(--fill-0, #664914)"/>
<path id="Vector_7" d="M9.60099 12.375L9.64312 11.1559L10.18 11.0366C10.6475 11.1915 10.4831 13.0072 9.60099 12.375Z" fill="var(--fill-0, #664914)"/>
<path id="Vector_8" d="M7.29044 13.2403L7.72673 13.1087C8.22146 13.1978 8.25544 14.3991 7.72673 14.5719C7.07026 14.7433 7.27685 13.5818 7.29044 13.2403Z" fill="var(--fill-0, #664914)"/>
<path id="Vector_9" d="M9.60099 13.2403L10.0373 13.1087C10.532 13.1978 10.566 14.3991 10.0373 14.5719C9.38081 14.7433 9.5874 13.5818 9.60099 13.2403Z" fill="var(--fill-0, #664914)"/>
<path id="Vector_10" d="M11.9115 13.2403L12.3478 13.1087C12.8425 13.1978 12.8765 14.3991 12.3478 14.5719C11.6914 14.7433 11.8979 13.5818 11.9115 13.2403Z" fill="var(--fill-0, #664914)"/>
</g>
<defs>
<clipPath id="clip0_75_136">
<rect width="33" height="33" fill="white"/>
</clipPath>
</defs>
</svg>
