<svg preserveAspectRatio="none" width="100%" height="100%" overflow="visible" style="display: block;" viewBox="0 0 28 20" fill="none" xmlns="http://www.w3.org/2000/svg">
<g id="Layer_1" clip-path="url(#clip0_75_98)">
<path id="Vector" d="M12.0163 0.0787047C16.787 -0.324615 21.4148 0.822633 25.3368 3.5598C26.0402 4.05042 28.1978 5.53951 27.9841 6.43468C27.5152 8.4021 25.4089 6.0203 24.7287 5.52352C18.2865 0.821403 9.69512 0.775907 3.25894 5.52352C2.54829 6.04858 1.12576 7.8463 0.263693 6.92039C-0.641109 5.94898 1.00854 4.79804 1.72407 4.2238C4.47755 2.0203 8.50215 0.375047 12.0163 0.0787047Z" fill="var(--fill-0, #664914)"/>
<path id="Vector_2" d="M12.3827 5.97971C15.7919 5.64894 19.1718 6.45066 21.9704 8.42545C22.7421 8.97018 25.1146 10.597 23.6311 11.5278C22.747 12.0824 22.1853 11.0495 21.6224 10.6191C17.2511 7.26837 11.5377 6.81217 6.99542 10.1457C6.24569 10.6966 5.03563 12.3357 4.15525 11.3618C3.5203 10.6597 4.07344 10.0719 4.58994 9.56778C6.47403 7.73194 9.76844 6.23179 12.3815 5.97848L12.3827 5.97971Z" fill="var(--fill-0, #664914)"/>
<path id="Vector_3" d="M12.7466 11.8807C15.1289 11.6114 17.6198 12.1771 19.4319 13.8113C19.9716 14.2982 20.6712 15.1995 19.7835 15.7688C18.8433 16.3714 18.1058 15.1958 17.4049 14.7458C15.2571 13.3674 12.3705 13.5002 10.2923 14.9413C9.69029 15.3581 8.74519 16.6615 7.9857 15.5008C7.51925 14.7888 7.99424 14.3486 8.49976 13.874C9.52056 12.9161 11.3631 12.0369 12.7478 11.8807H12.7466Z" fill="var(--fill-0, #664914)"/>
<path id="Vector_4" d="M13.9945 20.0012C14.8928 20.0012 15.621 19.2679 15.621 18.3634C15.621 17.4588 14.8928 16.7255 13.9945 16.7255C13.0962 16.7255 12.3681 17.4588 12.3681 18.3634C12.3681 19.2679 13.0962 20.0012 13.9945 20.0012Z" fill="var(--fill-0, #664914)"/>
</g>
<defs>
<clipPath id="clip0_75_98">
<rect width="28" height="20" fill="white"/>
</clipPath>
</defs>
</svg>
