<svg preserveAspectRatio="none" width="100%" height="100%" overflow="visible" style="display: block;" viewBox="0 0 29 29" fill="none" xmlns="http://www.w3.org/2000/svg">
<g id="Layer_1" clip-path="url(#clip0_75_148)">
<path id="Vector" d="M14.0329 11.2258H14.9695V12.1613H12.1631V11.2246H13.0986V9.52907C13.0986 9.0473 12.2462 8.42871 11.7492 8.41351C11.2031 8.39597 10.2922 8.99819 10.2922 9.52907V14.9666H11.2289L11.2955 14.0288H12.1643V14.9666H20.3495C19.9461 14.4275 19.6163 13.8007 19.6467 13.0956H18.7113V12.159L19.635 12.1461C19.7145 11.4866 20.0127 11.2749 20.6359 11.2176C21.831 11.1089 25.2489 11.0563 26.3644 11.2305C26.5702 11.2621 26.7631 11.3544 26.9011 11.5123C27.3384 12.0128 26.8274 12.3215 28.0681 12.159V13.0956H27.1326C27.163 13.8007 26.8333 14.4275 26.4299 14.9666H28.3592C28.4972 14.9666 29.0023 15.4729 29.0023 15.6097V28.9988H0V15.6097C0 15.4729 0.505141 14.9666 0.643119 14.9666H9.35446V9.41214C9.35446 8.41935 10.6898 7.49089 11.6358 7.47335C12.5818 7.45581 14.0317 8.3644 14.0317 9.41214V11.2246L14.0329 11.2258ZM26.1937 12.1613H20.581C20.2887 14.9432 21.99 15.1408 24.269 14.9724C25.954 14.8485 26.3387 13.6873 26.1937 12.1613ZM28.0646 15.9032H0.936615V16.8387H28.0646V15.9032ZM0.936615 17.7742V22.4516H6.54929V17.7742H5.61268C5.59163 18.3577 5.79509 19.2675 5.11572 19.5575C4.75557 19.7118 2.71981 19.7083 2.36902 19.5575C1.69433 19.2686 1.89077 18.3612 1.87206 17.7742H0.935446H0.936615ZM4.6784 17.7742H2.80751V18.7097H4.6784V17.7742ZM12.162 17.7742H7.48474V28.0645H12.162V17.7742ZM13.0974 17.7742V28.0645H17.7746V17.7742H13.0974ZM28.0646 17.7742H18.7101V28.0645H19.6455V20.2883C19.6455 20.2439 19.8689 19.934 19.9355 19.8767C20.4325 19.4475 21.3633 19.7551 21.5036 19.6323C21.5854 19.561 21.5223 18.9412 22.0952 18.7623C22.4425 18.6535 24.3356 18.6559 24.6794 18.7623C25.2512 18.9389 25.1904 19.5621 25.2711 19.6323C25.4137 19.7563 26.3422 19.4475 26.8391 19.8767C26.9058 19.934 27.1291 20.2439 27.1291 20.2883V28.0645H28.0646V17.7742ZM24.3228 19.6452H22.4519V20.5806H24.3228V19.6452ZM20.581 20.5806V28.0645H26.1937V20.5806C25.001 20.4614 25.4687 20.6192 25.0805 21.1642C24.7297 21.6553 23.1067 21.5769 22.5045 21.522C21.9023 21.467 21.5831 21.253 21.5036 20.5935L20.581 20.5806ZM0.936615 23.3871V28.0645H6.54929V23.3871H5.61268C5.59163 23.9706 5.79509 24.8804 5.11572 25.1704C4.75557 25.3247 2.71981 25.3212 2.36902 25.1704C1.69433 24.8815 1.89077 23.9741 1.87206 23.3871H0.935446H0.936615ZM4.6784 23.3871H2.80751V24.3226H4.6784V23.3871Z" fill="var(--fill-0, #664914)"/>
<path id="Vector_2" d="M27.1291 0V0.935484H25.2582V3.21573L28.2984 9.35484H17.5408L20.581 3.21573V0.935484H0V0H27.1279H27.1291ZM24.3228 0.935484H21.5164V2.80645H24.3228V0.935484ZM19.0609 8.41935H26.7783L24.5379 3.76064L21.4533 3.73258L19.0609 8.41818V8.41935Z" fill="var(--fill-0, #664914)"/>
<path id="Vector_3" d="M8.42018 3.74194V4.67742H6.54929V7.60081C6.54929 7.63004 6.88839 7.67915 7.07782 7.83234C7.89867 8.49653 7.71158 10.2927 8.06939 11.2258H4.09375C4.45155 10.2927 4.26447 8.49653 5.08532 7.83234C5.27475 7.67915 5.61385 7.63004 5.61385 7.60081V4.67742H2.33978V7.60081C2.33978 7.63004 2.67888 7.67915 2.86831 7.83234C3.53833 8.37375 3.70203 9.72669 3.25535 10.4458C2.10709 12.2946 -0.707431 10.6774 0.520342 8.2954C0.82787 7.69903 1.40434 7.65927 1.40434 7.60081V4.67742H0V3.74194H8.41902H8.42018ZM1.72473 8.43807C0.977541 8.57137 0.858272 10.3581 1.92117 10.2892C2.9525 10.2225 2.75723 8.25331 1.72473 8.43807ZM6.90008 10.2903C6.95387 7.77621 5.2116 7.76686 5.26305 10.2903H6.90008Z" fill="var(--fill-0, #664914)"/>
</g>
<defs>
<clipPath id="clip0_75_148">
<rect width="29" height="29" fill="white"/>
</clipPath>
</defs>
</svg>
