<svg preserveAspectRatio="none" width="100%" height="100%" overflow="visible" style="display: block;" viewBox="0 0 140 140" fill="none" xmlns="http://www.w3.org/2000/svg">
<g id="Vector">
<path d="M55.0612 4.7788C51.7924 6.38163 51.5134 6.92579 52.1014 10.4975C50.4869 7.2523 49.9388 6.97527 46.3411 7.55901C49.6099 5.95618 49.889 5.41201 49.301 1.84028C50.9154 5.08551 51.4636 5.36254 55.0612 4.7788Z" fill="#1C1917"/>
<path d="M91.9348 133.401C88.666 135.004 88.387 135.548 88.9749 139.119C87.3605 135.874 86.8124 135.597 83.2147 136.181C86.4835 134.578 86.7625 134.034 86.1745 130.462C87.789 133.707 88.3371 133.984 91.9348 133.401Z" fill="#1C1917"/>
<path d="M70.9169 10.0523L71.6543 0L75.3616 0.267138C76.0792 0.316608 76.6671 0.474912 77.1156 0.742049C77.574 1.00919 77.9029 1.35548 78.1022 1.76113C78.3115 2.17668 78.3912 2.6318 78.3514 3.1265C78.3215 3.54205 78.2218 3.88834 78.0424 4.16537C77.863 4.4424 77.6438 4.65018 77.3747 4.80848C77.1056 4.95689 76.8067 5.06572 76.4977 5.12509V5.22403C76.8266 5.2636 77.1455 5.39223 77.4544 5.61979C77.7634 5.83746 78.0026 6.14417 78.1919 6.52014C78.3713 6.89611 78.451 7.35124 78.4112 7.86572C78.3713 8.38021 78.2218 8.83534 77.9428 9.2212C77.6737 9.60707 77.2751 9.90389 76.7568 10.1117C76.2386 10.3095 75.5809 10.3887 74.8035 10.3293L70.9268 10.0523H70.9169ZM72.5313 8.85512L74.7338 9.01343C75.4613 9.0629 75.9994 8.96396 76.3383 8.70671C76.6771 8.44947 76.8565 8.10318 76.8864 7.68763C76.9063 7.37102 76.8465 7.0742 76.707 6.79717C76.5675 6.52014 76.3482 6.29258 76.0592 6.11449C75.7702 5.9364 75.4214 5.82756 75.0128 5.79788L72.7506 5.63958L72.5114 8.85512H72.5313ZM72.8602 4.4523L74.9032 4.60071C75.242 4.62049 75.5609 4.58092 75.84 4.47208C76.119 4.36325 76.3582 4.19505 76.5376 3.96749C76.717 3.73993 76.8166 3.4629 76.8465 3.14629C76.8764 2.73074 76.7568 2.37456 76.4878 2.06784C76.2187 1.76113 75.7802 1.59293 75.1723 1.54346L73.0894 1.39505L72.8702 4.4523H72.8602Z" fill="#1C1917"/>
<path d="M92.762 9.04311C92.453 10.0721 91.9946 10.9032 91.3966 11.5364C90.7987 12.1597 90.1011 12.5753 89.3237 12.783C88.5464 12.9908 87.7392 12.9611 86.8921 12.7138C86.055 12.4664 85.3573 12.041 84.8192 11.4473C84.281 10.8537 83.9322 10.1314 83.7728 9.28057C83.6133 8.42968 83.6931 7.48975 84.002 6.46078C84.3109 5.4318 84.7694 4.60071 85.3673 3.96749C85.9653 3.34417 86.6629 2.92862 87.4402 2.72085C88.2175 2.51307 89.0347 2.54276 89.8719 2.79011C90.709 3.03746 91.3966 3.453 91.9448 4.04664C92.4829 4.64028 92.8317 5.36254 92.9912 6.21343C93.1506 7.06431 93.0709 8.00424 92.762 9.03322V9.04311ZM91.307 8.61767C91.5461 7.83604 91.6159 7.13357 91.5162 6.52014C91.4166 5.90671 91.1973 5.39223 90.8386 4.98657C90.4798 4.58092 90.0214 4.29399 89.4633 4.1258C88.9052 3.9576 88.3571 3.9477 87.8388 4.09611C87.3107 4.24452 86.8423 4.55124 86.4337 5.01625C86.0151 5.48127 85.6962 6.10459 85.457 6.88622C85.2178 7.66784 85.1481 8.37032 85.2477 8.98375C85.3474 9.59717 85.5666 10.1117 85.9254 10.5173C86.2842 10.923 86.7426 11.2099 87.3007 11.3781C87.8588 11.5463 88.3969 11.5463 88.9251 11.4078C89.4533 11.2693 89.9217 10.9527 90.3403 10.4876C90.7588 10.0226 91.0877 9.39929 91.3169 8.61767H91.307Z" fill="#1C1917"/>
<path d="M105.867 15.7314C105.329 16.6615 104.701 17.3739 103.964 17.8488C103.236 18.3237 102.469 18.571 101.661 18.5908C100.854 18.6106 100.077 18.4127 99.3095 17.9774C98.5421 17.542 97.9641 16.9781 97.5755 16.2855C97.1868 15.583 97.0074 14.8014 97.0473 13.9406C97.0871 13.07 97.3761 12.1696 97.9143 11.2396C98.4525 10.3095 99.0803 9.59717 99.8178 9.12226C100.545 8.64735 101.313 8.4 102.12 8.38021C102.927 8.36042 103.714 8.5682 104.472 8.99364C105.229 9.42898 105.807 9.99293 106.196 10.6855C106.585 11.388 106.764 12.1696 106.724 13.0304C106.684 13.8912 106.395 14.8014 105.857 15.7314H105.867ZM104.552 14.9795C104.96 14.2671 105.189 13.6042 105.239 12.9809C105.289 12.3576 105.189 11.8134 104.93 11.3286C104.671 10.8537 104.292 10.4678 103.794 10.1809C103.286 9.89399 102.758 9.76537 102.22 9.78516C101.671 9.81484 101.143 10.0028 100.635 10.359C100.127 10.7152 99.6583 11.2495 99.2497 11.9618C98.8411 12.6742 98.6119 13.3371 98.5621 13.9604C98.5122 14.5837 98.6119 15.1279 98.871 15.6028C99.1202 16.0777 99.5088 16.4636 100.017 16.7505C100.525 17.0375 101.044 17.1661 101.592 17.1364C102.14 17.1067 102.668 16.9187 103.176 16.5625C103.685 16.2064 104.153 15.6721 104.562 14.9597L104.552 14.9795Z" fill="#1C1917"/>
<path d="M107.183 22.9936L113.969 15.5039L115.105 16.523L111.866 20.0947L111.956 20.1739L118.364 19.4219L119.799 20.6982L113.7 21.3512L113.023 28.1979L111.657 26.971L112.255 21.4502L110.441 21.6678L108.329 23.9929L107.192 22.9739L107.183 22.9936Z" fill="#1C1917"/>
<path d="M128.39 31.2452L129.257 32.7392L126.576 37.3004L126.626 37.3894H131.948L132.815 38.8933L125.639 38.7647L122.181 40.7336L121.424 39.4177L124.882 37.4488L128.4 31.2353L128.39 31.2452Z" fill="#1C1917"/>
<path d="M133.084 54.1795C132.057 54.506 131.11 54.6049 130.243 54.4664C129.376 54.3279 128.649 54.0014 128.031 53.477C127.423 52.9527 126.985 52.2799 126.716 51.4488C126.446 50.6177 126.407 49.8163 126.586 49.0346C126.765 48.253 127.174 47.5604 127.792 46.947C128.41 46.3336 129.237 45.8587 130.263 45.5322C131.29 45.2057 132.237 45.1067 133.104 45.2452C133.971 45.3837 134.698 45.7102 135.316 46.2346C135.924 46.759 136.362 47.4318 136.632 48.2629C136.901 49.094 136.94 49.8954 136.761 50.6671C136.572 51.4488 136.173 52.1413 135.555 52.7548C134.937 53.3682 134.11 53.8431 133.084 54.1696V54.1795ZM132.615 52.7449C133.403 52.4975 134.021 52.1512 134.479 51.7258C134.937 51.3004 135.236 50.8254 135.366 50.3011C135.495 49.7767 135.485 49.2424 135.306 48.6883C135.127 48.1343 134.828 47.689 134.409 47.3428C133.991 46.9965 133.472 46.7887 132.845 46.7095C132.227 46.6304 131.519 46.7095 130.732 46.9668C129.944 47.2141 129.327 47.5604 128.868 47.9859C128.41 48.4113 128.111 48.8862 127.981 49.4106C127.852 49.935 127.862 50.4693 128.041 51.0233C128.22 51.5774 128.519 52.0226 128.938 52.3689C129.356 52.7152 129.875 52.923 130.503 53.0021C131.12 53.0813 131.828 53.0021 132.615 52.7449Z" fill="#1C1917"/>
<path d="M139.86 65.9435L140 67.4572L133.353 68.0608C132.645 68.13 132.007 68.0212 131.429 67.7343C130.851 67.4572 130.383 67.0318 130.014 66.458C129.646 65.8841 129.426 65.2014 129.356 64.4C129.287 63.5986 129.376 62.8862 129.626 62.2629C129.885 61.6396 130.263 61.135 130.782 60.759C131.3 60.383 131.908 60.1555 132.615 60.0961L139.263 59.4926L139.402 61.0064L132.884 61.6C132.426 61.6396 132.027 61.7781 131.698 62.0155C131.36 62.253 131.11 62.5597 130.941 62.9456C130.772 63.3314 130.712 63.7767 130.762 64.2813C130.812 64.7958 130.951 65.2212 131.19 65.5774C131.429 65.9336 131.728 66.1908 132.107 66.3491C132.476 66.5173 132.894 66.5767 133.353 66.5371L139.87 65.9435H139.86Z" fill="#1C1917"/>
<path d="M133.761 78.964L128.928 80.923L129.127 79.2014L133.951 77.2919L133.761 78.964ZM129.775 73.5025L139.86 74.6304L139.452 78.2021C139.362 78.9739 139.153 79.6071 138.824 80.0919C138.495 80.5767 138.077 80.9131 137.578 81.1208C137.08 81.3286 136.512 81.388 135.894 81.3187C135.276 81.2495 134.748 81.0615 134.31 80.7548C133.871 80.4481 133.552 80.0226 133.353 79.4784C133.153 78.9343 133.094 78.2813 133.183 77.4997L133.492 74.7986L134.798 74.947L134.509 77.5095C134.449 77.9943 134.479 78.4099 134.589 78.7265C134.698 79.0431 134.878 79.3004 135.127 79.4686C135.376 79.6466 135.695 79.7456 136.073 79.7951C136.452 79.8346 136.791 79.7951 137.09 79.6862C137.389 79.5774 137.628 79.3696 137.808 79.0827C137.997 78.7958 138.116 78.4 138.166 77.8954L138.386 75.9958L129.606 75.0064L129.775 73.4926V73.5025Z" fill="#1C1917"/>
<path d="M130.393 99.7413C130.841 99.8898 131.26 99.8403 131.659 99.5929C132.057 99.3555 132.366 98.9696 132.605 98.4452C132.775 98.0693 132.864 97.7131 132.874 97.3866C132.874 97.0601 132.815 96.7731 132.675 96.5258C132.536 96.2784 132.336 96.1004 132.077 95.9816C131.858 95.8827 131.649 95.853 131.439 95.8827C131.23 95.9124 131.041 95.9915 130.851 96.1102C130.672 96.229 130.493 96.3774 130.333 96.5357C130.174 96.694 130.034 96.8622 129.905 97.0205L129.267 97.812C129.058 98.0693 128.828 98.3265 128.559 98.5837C128.3 98.8311 128.001 99.0488 127.682 99.217C127.363 99.3852 127.015 99.494 126.646 99.5237C126.277 99.5534 125.878 99.4742 125.46 99.2862C124.932 99.0488 124.533 98.7124 124.244 98.2572C123.955 97.8021 123.815 97.2777 123.806 96.6643C123.806 96.0509 123.965 95.388 124.284 94.6756C124.593 93.983 124.972 93.4389 125.42 93.0332C125.868 92.6276 126.357 92.3802 126.895 92.2714C127.433 92.1724 127.981 92.2318 128.549 92.4495L127.921 93.8445C127.573 93.7258 127.244 93.706 126.945 93.7951C126.646 93.8841 126.367 94.0523 126.118 94.3095C125.878 94.5569 125.669 94.8636 125.51 95.2198C125.33 95.6155 125.241 95.9915 125.221 96.3477C125.201 96.7039 125.271 97.0304 125.42 97.3074C125.569 97.5845 125.789 97.7922 126.088 97.9209C126.357 98.0396 126.626 98.0693 126.865 97.9901C127.114 97.911 127.343 97.7724 127.583 97.5647C127.812 97.3569 128.051 97.0996 128.29 96.8127L129.077 95.8629C129.616 95.2198 130.174 94.7647 130.762 94.5173C131.35 94.2601 131.968 94.2799 132.605 94.5668C133.144 94.8042 133.542 95.1604 133.801 95.6254C134.06 96.0905 134.2 96.6148 134.2 97.2085C134.2 97.7922 134.06 98.3958 133.781 99.0191C133.502 99.6424 133.144 100.137 132.705 100.523C132.267 100.899 131.798 101.146 131.29 101.245C130.782 101.344 130.273 101.295 129.775 101.087L130.383 99.7512L130.393 99.7413Z" fill="#1C1917"/>
<path d="M127.971 106.934L129.048 107.696L124.473 114.038L123.397 113.276L125.241 110.724L118.065 105.618L118.952 104.382L126.128 109.487L127.971 106.934Z" fill="#1C1917"/>
<path d="M113.302 111.377L114.478 110.259L118.862 120.034L117.587 121.251L107.93 116.492L109.106 115.374L116.929 119.351L116.989 119.292L113.312 111.367L113.302 111.377ZM115.853 114.404L112.046 118.025L111.149 117.105L114.956 113.484L115.843 114.404H115.853Z" fill="#1C1917"/>
<path d="M111.348 126.564L109.883 127.504L105.159 125.08L105.07 125.139L105.339 130.413L103.874 131.343L103.635 124.219L101.482 120.895L102.768 120.074L104.92 123.398L111.348 126.564Z" fill="#1C1917"/>
<path d="M71.2158 129.938L70.8471 140L67.1298 139.861C66.4123 139.832 65.8144 139.693 65.3559 139.446C64.8975 139.199 64.5487 138.862 64.3294 138.457C64.1102 138.051 64.0105 137.596 64.0305 137.101C64.0504 136.686 64.1401 136.329 64.2995 136.052C64.459 135.775 64.6782 135.548 64.9473 135.389C65.2164 135.231 65.5054 135.112 65.8144 135.043V134.944C65.4855 134.914 65.1566 134.796 64.8377 134.588C64.5188 134.38 64.2696 134.083 64.0703 133.717C63.871 133.341 63.7813 132.896 63.8013 132.382C63.8212 131.867 63.9607 131.412 64.2198 131.016C64.4789 130.62 64.8676 130.304 65.3759 130.086C65.8841 129.869 66.5419 129.77 67.3292 129.799L71.2158 129.938ZM69.6412 131.184L67.4288 131.105C66.6913 131.076 66.1632 131.204 65.8343 131.471C65.5054 131.739 65.336 132.085 65.3161 132.51C65.3061 132.827 65.3759 133.124 65.5253 133.391C65.6748 133.658 65.904 133.886 66.1931 134.054C66.4821 134.222 66.8408 134.311 67.2494 134.331L69.5117 134.41L69.6313 131.184H69.6412ZM69.4818 135.597L67.4288 135.518C67.09 135.508 66.7711 135.558 66.492 135.676C66.213 135.795 65.9838 135.973 65.8144 136.211C65.6449 136.438 65.5453 136.715 65.5353 137.042C65.5154 137.457 65.6549 137.813 65.9339 138.1C66.213 138.397 66.6614 138.555 67.2694 138.575L69.3622 138.654L69.4718 135.597H69.4818Z" fill="#1C1917"/>
<path d="M49.4405 131.739C49.7096 130.7 50.1381 129.849 50.7161 129.206C51.2941 128.553 51.9718 128.117 52.7392 127.89C53.5065 127.662 54.3237 127.652 55.1708 127.87C56.0179 128.088 56.7255 128.483 57.2936 129.057C57.8517 129.631 58.2304 130.343 58.4197 131.184C58.6091 132.025 58.5692 132.975 58.3001 134.014C58.031 135.053 57.6025 135.904 57.0245 136.547C56.4465 137.2 55.7688 137.635 55.0014 137.873C54.2341 138.1 53.4169 138.11 52.5698 137.893C51.7227 137.675 51.0151 137.279 50.457 136.705C49.8989 136.131 49.5202 135.429 49.3309 134.578C49.1415 133.727 49.1814 132.787 49.4505 131.748L49.4405 131.739ZM50.9154 132.114C50.7062 132.906 50.6663 133.608 50.7759 134.222C50.8955 134.835 51.1347 135.33 51.5134 135.726C51.8921 136.122 52.3505 136.389 52.9186 136.537C53.4866 136.686 54.0248 136.666 54.543 136.507C55.0612 136.339 55.5196 136.013 55.9183 135.538C56.3169 135.063 56.6159 134.42 56.8252 133.628C57.0345 132.837 57.0743 132.134 56.9647 131.521C56.8451 130.907 56.6059 130.413 56.2372 130.017C55.8685 129.621 55.4001 129.354 54.832 129.206C54.2739 129.057 53.7258 129.077 53.2076 129.245C52.6894 129.413 52.2309 129.73 51.8323 130.215C51.4337 130.69 51.1347 131.333 50.9254 132.124L50.9154 132.114Z" fill="#1C1917"/>
<path d="M36.0863 125.525C36.5846 124.575 37.1925 123.843 37.91 123.339C38.6176 122.834 39.375 122.557 40.1822 122.507C40.9895 122.458 41.7768 122.636 42.5541 123.032C43.3314 123.437 43.9294 123.982 44.348 124.664C44.7665 125.347 44.9658 126.129 44.9559 126.989C44.9459 127.86 44.6868 128.77 44.1885 129.72C43.6902 130.67 43.0823 131.402 42.3647 131.907C41.6572 132.411 40.8998 132.688 40.0925 132.738C39.2853 132.787 38.498 132.609 37.7207 132.204C36.9433 131.798 36.3454 131.254 35.9368 130.571C35.5182 129.888 35.3189 129.107 35.3289 128.246C35.3289 127.375 35.598 126.465 36.0962 125.515L36.0863 125.525ZM37.4317 126.218C37.053 126.94 36.8437 127.623 36.8138 128.236C36.7839 128.859 36.9134 129.404 37.1825 129.869C37.4516 130.334 37.8502 130.71 38.3685 130.977C38.8867 131.244 39.4149 131.353 39.963 131.313C40.5011 131.264 41.0293 131.056 41.5276 130.68C42.0259 130.304 42.4644 129.75 42.8531 129.028C43.2417 128.305 43.4411 127.623 43.471 127.009C43.5009 126.386 43.3713 125.842 43.1022 125.377C42.8331 124.912 42.4345 124.536 41.9163 124.269C41.3981 124.001 40.8699 123.893 40.3317 123.932C39.7836 123.982 39.2654 124.189 38.7671 124.565C38.2688 124.941 37.8303 125.495 37.4416 126.218H37.4317Z" fill="#1C1917"/>
<path d="M34.5017 118.302L27.9841 126.02L26.8081 125.04L29.9174 121.35L29.8178 121.271L23.4396 122.24L21.9647 121.013L28.0339 120.143L28.4724 113.276L29.8875 114.454L29.4889 119.994L31.2927 119.707L33.3158 117.303L34.4917 118.283L34.5017 118.302Z" fill="#1C1917"/>
<path d="M13.0353 110.833L12.1185 109.368L14.6298 104.718L14.57 104.629L9.25826 104.817L8.3414 103.353L15.5168 103.224L18.8952 101.136L19.7024 102.423L16.324 104.51L13.0353 110.842V110.833Z" fill="#1C1917"/>
<path d="M7.50427 88.0565C8.52079 87.6905 9.46754 87.5618 10.3346 87.6608C11.2016 87.7597 11.949 88.0664 12.5769 88.571C13.2047 89.0756 13.6731 89.7286 13.9721 90.5498C14.2711 91.371 14.3408 92.1724 14.1814 92.9541C14.0219 93.7357 13.6432 94.4481 13.0453 95.0813C12.4473 95.7145 11.6401 96.2191 10.6236 96.5852C9.60706 96.9512 8.66031 97.0799 7.79328 96.9809C6.92625 96.8721 6.17882 96.5753 5.55097 96.0707C4.92312 95.5661 4.45473 94.9131 4.15575 94.0919C3.85678 93.2707 3.78702 92.4792 3.94647 91.6876C4.10592 90.906 4.48462 90.1936 5.07261 89.5604C5.67056 88.9272 6.47779 88.4226 7.49431 88.0565H7.50427ZM8.02249 89.4714C7.24516 89.7484 6.63724 90.1145 6.19875 90.5498C5.76025 90.9951 5.48121 91.4799 5.36162 92.0042C5.24203 92.5385 5.28189 93.0728 5.48121 93.6071C5.68052 94.1512 5.99943 94.5866 6.42796 94.923C6.85649 95.2495 7.38468 95.4473 8.01253 95.4968C8.64038 95.5463 9.33798 95.4375 10.1153 95.1604C10.8927 94.8834 11.5006 94.5173 11.9391 94.082C12.3776 93.6466 12.6566 93.1618 12.7762 92.6276C12.8958 92.0933 12.8559 91.559 12.6566 91.0148C12.4573 90.4707 12.1384 90.0353 11.7099 89.7088C11.2813 89.3823 10.7531 89.1845 10.1253 89.1251C9.5074 89.0657 8.79983 89.1845 8.02249 89.4615V89.4714Z" fill="#1C1917"/>
<path d="M0.308941 76.53L0.11959 75.0163L6.7369 74.1753C7.44448 74.0862 8.08229 74.1753 8.67027 74.4325C9.25826 74.6898 9.73662 75.0954 10.1253 75.6594C10.514 76.2134 10.7531 76.8961 10.8628 77.6975C10.9624 78.4989 10.9026 79.2113 10.6634 79.8445C10.4342 80.4777 10.0655 80.9922 9.5672 81.388C9.06891 81.7837 8.46099 82.0311 7.76338 82.1201L1.14607 82.9611L0.95672 81.4572L7.45444 80.636C7.91287 80.5767 8.30154 80.4283 8.63041 80.1809C8.95928 79.9336 9.19846 79.617 9.35792 79.2212C9.51737 78.8254 9.55723 78.3802 9.48747 77.8756C9.41771 77.371 9.26822 76.9456 9.01908 76.5993C8.76993 76.253 8.46099 76.0057 8.07232 75.8572C7.69362 75.7088 7.27506 75.6594 6.81663 75.7187L0.318907 76.5399L0.308941 76.53Z" fill="#1C1917"/>
<path d="M10.1153 68.6247L0 67.8431L0.279043 64.2615C0.338838 63.4799 0.528189 62.8466 0.83713 62.3519C1.14607 61.8572 1.55467 61.5011 2.043 61.2834C2.54129 61.0657 3.09937 60.9767 3.71726 61.0261C4.33514 61.0756 4.87329 61.2438 5.32175 61.5406C5.77022 61.8375 6.10905 62.2431 6.3283 62.7774C6.54755 63.3117 6.62728 63.9647 6.56748 64.7463L6.3582 67.4572L5.04271 67.3583L5.24203 64.7859C5.28189 64.2912 5.24203 63.8855 5.12244 63.5689C5.00285 63.2523 4.8135 63.0049 4.55439 62.8466C4.29527 62.6784 3.97637 62.5894 3.59767 62.5597C3.21896 62.53 2.88013 62.5795 2.59112 62.6982C2.30211 62.817 2.06293 63.0346 1.89351 63.3315C1.72409 63.6283 1.61446 64.024 1.5746 64.5286L1.42511 66.4283L10.2349 67.1011L10.1153 68.6148V68.6247ZM5.93964 63.3117L10.6933 61.1845L10.5638 62.9159L5.81008 64.9936L5.93964 63.3117Z" fill="#1C1917"/>
<path d="M8.55068 42.4551C8.09226 42.3265 7.67369 42.3958 7.29499 42.6431C6.91629 42.8905 6.60735 43.2961 6.3881 43.8304C6.22864 44.2163 6.15888 44.5724 6.15888 44.8989C6.15888 45.2254 6.23861 45.5124 6.3881 45.7498C6.53759 45.9873 6.7369 46.1654 7.00598 46.2742C7.22523 46.3632 7.44448 46.3929 7.65376 46.3534C7.86304 46.3138 8.05239 46.2346 8.23178 46.106C8.41116 45.9774 8.58058 45.829 8.73007 45.6608C8.87956 45.4926 9.01908 45.3244 9.13867 45.1661L9.75655 44.3548C9.95587 44.0876 10.1751 43.8205 10.4342 43.5633C10.6834 43.2961 10.9724 43.0784 11.2913 42.8905C11.6102 42.7025 11.949 42.5936 12.3178 42.5541C12.6865 42.5145 13.0851 42.5739 13.5037 42.7421C14.0319 42.9597 14.4505 43.2862 14.7494 43.7216C15.0484 44.1569 15.2178 44.6813 15.2378 45.2947C15.2677 45.9081 15.1281 46.5809 14.8292 47.3032C14.5401 48.0057 14.1814 48.5597 13.7528 48.9852C13.3243 49.4007 12.836 49.6777 12.3078 49.7965C11.7796 49.9152 11.2215 49.8756 10.6435 49.6777L11.2215 48.2629C11.5703 48.3717 11.8992 48.3816 12.2081 48.2728C12.5171 48.1739 12.7762 47.9859 13.0154 47.7286C13.2446 47.4714 13.4339 47.1647 13.5834 46.7986C13.7429 46.4028 13.8326 46.017 13.8326 45.6608C13.8326 45.2947 13.7528 44.9781 13.6034 44.7109C13.4539 44.4438 13.2147 44.2459 12.9157 44.1173C12.6367 44.0085 12.3776 43.9887 12.1384 44.0777C11.8992 44.1668 11.66 44.3152 11.4408 44.5329C11.2116 44.7505 10.9923 45.0078 10.7631 45.3046L10.0057 46.2841C9.49744 46.947 8.94932 47.4219 8.3713 47.689C7.79328 47.9562 7.1754 47.9661 6.52762 47.6989C5.98946 47.4813 5.5709 47.1449 5.29186 46.6897C5.00285 46.2346 4.85336 45.7102 4.83343 45.1265C4.8135 44.5329 4.93309 43.9293 5.1922 43.306C5.45131 42.6728 5.79015 42.1583 6.21868 41.7724C6.63724 41.3767 7.10564 41.1194 7.6139 41.0007C8.12215 40.882 8.63041 40.9117 9.13867 41.1095L8.58058 42.465L8.55068 42.4551Z" fill="#1C1917"/>
<path d="M10.7232 35.1534L9.62699 34.4311L13.9721 27.9307L15.0683 28.653L13.3144 31.2749L20.6691 36.123L19.822 37.3894L12.4673 32.5413L10.7232 35.1534Z" fill="#1C1917"/>
<path d="M25.2335 30.1866L24.0974 31.3442L19.3636 21.7272L20.5994 20.4707L30.4257 24.8933L29.2896 26.0509L21.3368 22.3505L21.2771 22.4099L25.2335 30.1965V30.1866ZM22.5826 27.2481L26.26 23.4982L27.1868 24.3887L23.5094 28.1385L22.5826 27.2481Z" fill="#1C1917"/>
<path d="M26.6287 14.9399L28.0538 13.9505L32.8673 16.2064L32.957 16.147L32.4986 10.8834L33.9237 9.89399L34.422 17.0078L36.6942 20.253L35.4385 21.1138L33.1663 17.8686L26.6287 14.93V14.9399Z" fill="#1C1917"/>
</g>
</svg>
