<svg preserveAspectRatio="none" width="100%" height="100%" overflow="visible" style="display: block;" viewBox="0 0 31 31" fill="none" xmlns="http://www.w3.org/2000/svg">
<g id="Layer_1" clip-path="url(#clip0_75_122)">
<path id="Vector" d="M1.31617 11.8076C1.38729 14.5287 1.03173 17.2534 1.85735 19.883C2.68297 22.5125 4.62348 24.9793 7.04732 26.2628C10.6439 26.0157 14.719 26.6098 18.2589 26.276C19.6136 26.1483 21.888 23.4488 22.5811 22.2823C24.5794 18.9165 24.2395 15.5844 24.2178 11.8076H11.7431C11.2526 11.8076 10.9826 10.9098 11.5021 10.6025H25.1218C25.6136 11.0701 25.3713 11.804 25.4231 12.4101H30.4251C30.5275 12.4101 30.9964 12.768 30.965 12.9548C30.8759 16.2809 31.6894 19.6937 28.6666 21.9798C27.0406 23.2102 25.4472 23.1512 23.4959 23.197C22.6461 24.2996 21.7928 25.3698 20.7225 26.2688H26.4476C26.8273 26.2688 26.8851 27.1039 26.8562 27.4004C26.6718 29.3165 24.9205 30.7192 23.0776 30.853C16.7499 31.3109 9.84358 30.5252 3.45797 30.8168C1.77057 30.5879 0.141019 28.9019 0.103655 27.1726C0.0976283 26.9099 0.261547 26.2688 0.533942 26.2688H4.81271C2.66489 24.4418 1.01365 21.9497 0.408592 19.1635C0.00602646 17.3101 -0.109681 13.1561 0.108476 11.2629C0.141019 10.9773 0.200078 10.6507 0.532737 10.6025L5.4708 10.6061C6.14938 10.7338 6.02162 11.8076 5.35389 11.8076H1.31617ZM29.761 13.6152H25.4219V14.8203H28.0133C28.0422 14.8203 28.4038 15.0577 28.4436 15.1132C28.6196 15.3578 28.5954 17.2305 28.5545 17.6511C28.3556 19.666 26.6441 20.8494 24.6975 20.7844L24.2166 21.9304H25.9643C27.4661 21.9304 29.761 19.4973 29.761 18.0138V13.6152ZM27.3504 16.0254H25.4219C25.4846 17.204 25.2773 18.3681 25.0603 19.519C25.7775 19.5503 26.5706 19.2045 26.9683 18.5959C27.037 18.4911 27.3492 17.8246 27.3492 17.7716V16.0242L27.3504 16.0254ZM25.5425 27.4739H1.4367C1.5729 28.6332 2.59257 29.4057 3.67733 29.6322C9.94724 29.296 16.7487 30.1155 22.9559 29.6479C24.2178 29.5527 25.3484 28.7886 25.5425 27.4739Z" fill="var(--fill-0, #664914)"/>
<path id="Vector_2" d="M9.1168 1.34248C10.3149 1.15931 9.45789 2.59458 9.39883 2.95732C9.17706 4.33113 10.7005 5.04817 10.7259 6.68469C10.7379 7.42583 10.0533 9.38653 9.21081 9.38773C7.88138 9.39014 9.23009 7.86207 9.36629 7.50416C10.04 5.73025 8.31166 5.21929 8.18149 3.67797C8.12725 3.03203 8.31528 1.4654 9.1168 1.34248Z" fill="var(--fill-0, #664914)"/>
<path id="Vector_3" d="M15.8592 1.34851C16.0617 1.32923 16.4329 1.57868 16.4871 1.77029C16.6052 2.18846 16.128 2.59458 16.0484 2.9778C15.8351 3.99973 16.733 4.53479 17.0886 5.37836C17.6888 6.80641 17.3236 8.58272 15.9556 9.4034C14.5068 8.95751 15.8604 8.14407 16.0617 7.44752C16.633 5.46875 14.807 5.12891 14.807 3.31041C14.807 2.72594 15.1734 1.41117 15.8604 1.3473L15.8592 1.34851Z" fill="var(--fill-0, #664914)"/>
<path id="Vector_4" d="M12.3723 0.0156663C12.5977 -0.0457938 13.034 0.0795366 13.1123 0.320557C13.2485 0.827904 12.7809 1.22077 12.6941 1.68232C12.5085 2.67291 13.4112 3.19954 13.7535 4.01298C14.3719 5.47959 13.9777 7.2294 12.5675 8.04766C11.1995 7.58972 12.4362 6.82569 12.7049 6.1436C13.4257 4.31305 11.443 3.68399 11.443 1.98721C11.443 1.51722 11.8817 0.149432 12.3723 0.0168714V0.0156663Z" fill="var(--fill-0, #664914)"/>
<path id="Vector_5" d="M21.7723 15.8025C22.9053 15.4964 22.4557 17.6583 22.3521 18.1994C22.0507 19.7757 21.1745 21.7328 20.0584 22.8957C19.733 23.2343 19.5401 23.5175 18.9977 23.3536C17.9865 23.0475 19.6353 21.5339 19.9258 21.076C20.467 20.2228 20.9491 19.0707 21.1468 18.0789C21.2673 17.474 21.1986 15.9579 21.7723 15.8025Z" fill="var(--fill-0, #664914)"/>
<path id="Vector_6" d="M17.2935 24.9516C17.6236 24.9516 17.8913 24.684 17.8913 24.3539C17.8913 24.0238 17.6236 23.7561 17.2935 23.7561C16.9633 23.7561 16.6956 24.0238 16.6956 24.3539C16.6956 24.684 16.9633 24.9516 17.2935 24.9516Z" fill="var(--fill-0, #664914)"/>
<path id="Vector_7" d="M8.75039 11.7497C9.07257 11.7497 9.33375 11.4886 9.33375 11.1665C9.33375 10.8443 9.07257 10.5832 8.75039 10.5832C8.42821 10.5832 8.16703 10.8443 8.16703 11.1665C8.16703 11.4886 8.42821 11.7497 8.75039 11.7497Z" fill="var(--fill-0, #664914)"/>
</g>
<defs>
<clipPath id="clip0_75_122">
<rect width="31" height="31" fill="white"/>
</clipPath>
</defs>
</svg>
