<svg preserveAspectRatio="none" width="100%" height="100%" overflow="visible" style="display: block;" viewBox="0 0 26 31" fill="none" xmlns="http://www.w3.org/2000/svg">
<g id="Layer_1" clip-path="url(#clip0_75_79)">
<path id="Vector" d="M12.8621 0L25.4594 3.91393C25.7987 4.03268 25.9801 4.25806 25.941 4.6337C25.7417 12.7633 27.4224 20.7159 21.0152 26.8789C19.3523 28.4784 15.3505 30.9418 13.0602 31C11.3949 31.0412 7.86635 29.1606 6.49287 28.1379C-1.41589 22.2476 0.165149 13.4673 0.0702628 4.6337L0.184126 4.14416L12.8621 0ZM24.7324 4.95966L13.0459 1.22144L1.27888 4.95966C1.55879 10.0235 0.467599 15.6715 2.24197 20.4845C3.71626 24.482 6.92342 27.6738 10.841 29.1485C12.7743 29.8767 13.2369 29.8767 15.1702 29.1485C20.5491 27.1236 24.3967 21.9265 24.7525 16.0362C24.9708 12.4325 24.5924 8.58762 24.7324 4.95966Z" fill="var(--fill-0, #664914)"/>
<path id="Vector_2" d="M12.9626 3.52738L22.0848 6.39194L22.5521 6.76273C22.52 9.76543 22.8047 12.9123 22.6185 15.9138C22.5544 16.9389 21.7835 20.6081 21.0671 21.2358C20.6211 21.6272 20.0162 21.3291 20.034 20.7777C20.0435 20.4506 20.8489 18.8802 21.0114 18.2719C21.8891 14.9929 21.2047 11.1711 21.4336 7.78423L21.3102 7.42556L12.9508 4.81546L4.63993 7.48251C4.76091 11.3286 3.98996 15.7151 5.3587 19.36C6.37161 22.0586 8.59787 24.4614 11.1859 25.6453C12.7563 26.3639 13.169 26.3966 14.7477 25.6841C15.3561 25.4102 16.9704 24.19 17.4341 24.3463C17.6346 24.413 17.7746 24.7935 17.7544 24.9922C17.6702 25.815 13.8937 27.469 13.067 27.4908C11.1408 27.5405 7.72848 24.991 6.48784 23.5393C2.30811 18.6572 3.5784 13.0444 3.39218 7.05719C3.39099 6.72153 3.63888 6.50584 3.92473 6.38952L12.9626 3.52617V3.52738Z" fill="var(--fill-0, #664914)"/>
<path id="Vector_3" d="M15.8175 10.5385C16.0583 10.4646 16.1852 10.5094 16.3916 10.633C16.598 10.7566 18.606 12.8978 18.6499 13.0589C18.6736 13.145 18.6902 13.2225 18.6499 13.3086L12.0588 20.0422H11.8145L7.35842 15.4897C7.3181 15.4037 7.3347 15.3273 7.35842 15.2401C7.43552 14.9565 9.61553 12.7621 9.88833 12.7184C10.5217 12.6167 11.3757 14.1568 11.9806 14.387C12.372 14.3167 15.2613 10.7094 15.8175 10.5397V10.5385ZM16.0298 11.9732C15.7523 11.9732 12.6981 15.7405 12.06 15.9211C11.486 16.0835 10.5383 14.444 9.98084 14.2683L8.86237 15.4073L11.9806 18.5045L17.1044 13.3013C17.261 12.9899 16.2208 12.264 16.0298 11.972V11.9732Z" fill="var(--fill-0, #664914)"/>
<path id="Vector_4" d="M19.1457 23.6629C19.4673 23.6629 19.728 23.3965 19.728 23.0679C19.728 22.7393 19.4673 22.473 19.1457 22.473C18.824 22.473 18.5633 22.7393 18.5633 23.0679C18.5633 23.3965 18.824 23.6629 19.1457 23.6629Z" fill="var(--fill-0, #664914)"/>
</g>
<defs>
<clipPath id="clip0_75_79">
<rect width="26" height="31" fill="white"/>
</clipPath>
</defs>
</svg>
