<svg preserveAspectRatio="none" width="100%" height="100%" overflow="visible" style="display: block;" viewBox="0 0 29 29" fill="none" xmlns="http://www.w3.org/2000/svg">
<g id="Layer_1" clip-path="url(#clip0_75_131)">
<path id="Vector" d="M23.5357 14.3781H27.7669C27.9046 14.3781 28.4326 14.6913 28.5624 14.8247C29.3556 15.6445 28.9347 16.8205 27.8177 16.9302L27.8233 25.5728C28.278 25.4846 28.7576 25.6576 28.902 26.1314C29.0633 26.6629 29.0758 28.4043 28.5624 28.7424C28.137 29.0228 25.3467 29.0805 24.9179 28.8803C24.4237 28.6496 24.7803 28.0594 24.9472 28.0594H28.0501V26.3632H0.969378V28.0594H22.9151C23.0821 28.0594 23.4376 28.6496 22.9445 28.8803L1.47261 28.9685C-0.119448 29.0816 -0.0776999 27.6206 0.0644681 26.4163C0.140065 25.7797 0.547388 25.462 1.19617 25.5716L1.20181 16.9291C0.0847778 16.8194 -0.336084 15.6434 0.457122 14.8236C0.58575 14.6901 1.11493 14.3769 1.25259 14.3769H5.48377V6.17989C5.48377 5.83274 6.38643 5.83048 6.38643 6.29297V10.7596H14.059V0.921764H6.3853V4.25757C6.3853 4.63977 5.65979 4.87045 5.50521 4.34803C5.40818 4.01784 5.42623 1.53578 5.47926 1.08912C5.54922 0.498852 5.99716 0.109863 6.58388 0.0476705L22.1287 0.013747C22.5417 -0.0925463 23.5357 0.473975 23.5357 0.865225V14.3781ZM22.6331 0.921764H14.9605V10.7596H22.6331V0.921764ZM14.0579 11.6642H6.3853V14.3781H14.0579V11.6642ZM22.6331 11.6642H14.9605V14.3781H22.6331V11.6642ZM28.0535 15.2759H0.964865V15.9611H28.0535V15.2759ZM2.0977 16.8658V25.5728H5.48265V16.8658H2.0977ZM9.77025 16.8658H6.3853V25.5728H9.77025V16.8658ZM14.0579 16.8658H10.6729V25.5728H14.0579V16.8658ZM18.3455 16.8658H14.9605V25.5728H18.3455V16.8658ZM19.2481 16.8658V25.5728H22.6331V16.8658H19.2481ZM23.5357 16.8658V25.5728H26.9207V16.8658H23.5357Z" fill="var(--fill-0, #664914)"/>
</g>
<defs>
<clipPath id="clip0_75_131">
<rect width="29" height="29" fill="white"/>
</clipPath>
</defs>
</svg>
