<svg preserveAspectRatio="none" width="100%" height="100%" overflow="visible" style="display: block;" viewBox="0 0 22 34" fill="none" xmlns="http://www.w3.org/2000/svg">
<g id="Layer_1" clip-path="url(#clip0_75_75)">
<path id="Vector" d="M1.27978 0.0369706L20.3636 -1.31698e-05C21.2654 -0.00529657 22.0049 0.740984 21.9997 1.65105V32.1733C22.0049 33.0833 21.2654 33.8296 20.3636 33.8243C14.3465 33.3898 7.5625 34.3857 1.6358 33.8243C0.67507 33.7332 0.0389444 33.1797 -0.000322576 32.1733V1.65105C-0.0238828 0.904769 0.569049 0.166414 1.27978 0.0369706ZM9.429 1.06195H1.05203V20.0822H9.429V1.06195ZM20.9473 1.06195H10.4761V20.0822H20.9473V1.06195ZM1.05203 21.1389V32.4321C1.05203 32.4559 1.3557 32.7623 1.37926 32.7623H9.429V22.7239H2.42638C2.01015 22.7239 2.08476 21.4321 2.10046 21.1389H1.05203ZM9.429 21.1389H3.14627V21.6672H9.429V21.1389ZM18.8531 21.1389H10.4761V21.6672H18.8531V21.1389ZM20.9473 21.1389H19.8989C19.9133 21.4321 19.9892 22.7239 19.573 22.7239H10.4761V32.7623H20.6201C20.6437 32.7623 20.9473 32.4559 20.9473 32.4321V21.1389Z" fill="var(--fill-0, #664914)"/>
<path id="Vector_2" d="M8.39005 9.50748V19.0334H2.09293V9.50748H8.39136H8.39005ZM3.1466 10.5721V12.1571H7.33508V10.5721H3.1466ZM3.1466 13.2138V17.9688H7.33508V13.2138H6.81152C6.76178 13.6272 6.9856 14.5201 6.54974 14.7328C6.20812 14.9005 3.9123 14.9018 3.73429 14.5346L3.66885 13.2125H3.14529L3.1466 13.2138ZM5.76571 13.2111H4.71728V13.7434H5.76571V13.2111Z" fill="var(--fill-0, #664914)"/>
</g>
<defs>
<clipPath id="clip0_75_75">
<rect width="22" height="34" fill="white"/>
</clipPath>
</defs>
</svg>
